<svg xmlns="http://www.w3.org/2000/svg" width="44" height="44" viewBox="0 0 44 44">
    <path fill="#343434" fill-rule="nonzero" stroke="#343434" stroke-width=".6" d="M15.918 33.056h-5.263a.586.586 0 0 1-.572-.572v-5.567c0-.152.077-.304.19-.419l15.939-15.633c1.067-1.068 3.087-1.03 4.193.04l1.524 1.6c1.07 1.067 1.07 3.012 0 4.117L16.34 32.864a.613.613 0 0 1-.42.192h-.001zm-4.69-1.144h4.423l15.44-16.052c.648-.647.648-1.868 0-2.517l-1.525-1.6c-.647-.648-1.945-.648-2.553-.04L11.228 27.146v4.767zm22.112 1.144H22.284a.586.586 0 0 1-.572-.572.586.586 0 0 1 .572-.572h11.058c.312.009.563.26.57.572a.586.586 0 0 1-.572.572z"/>
</svg>
